<?xml version="1.0" encoding="UTF-8"?><svg id="Layer_1" xmlns="http://www.w3.org/2000/svg" viewBox="0 0 2560 2560"><defs><style>.cls-1{fill:#fff;}.cls-2{fill:#1d295c;}</style></defs><rect class="cls-2" y="-21.43" width="2560" height="2581.43"/><g><path class="cls-1" d="m1647.88,842.71c-102.48,0-226.53,52.14-291.26,160.01-46.75-100.68-134.84-160.01-276.87-160.01-101.4,0-201.2,50.85-256.12,124.14l-29.8-151.28-245.66,48.12,29.93,152.19.13,2.45-.08,741.29h240.92v-465.65c0-118.66,61.13-222.94,183.38-222.94,129.45,0,156.42,88.1,156.42,206.76v481.83h240.91v-474.64c0-118.66,64.73-213.95,183.39-213.95,127.65,0,156.41,88.1,156.41,206.76v499.85l240.92-47.19v-483.22c0-230.13-79.11-404.52-332.61-404.52Z"/><path class="cls-1" d="m2099.85,580.96c-82.96,0-152.42,69.46-152.42,154.35s69.46,152.42,152.42,152.42,154.35-69.46,154.35-152.42-69.46-154.35-154.35-154.35Z"/></g></svg>